{
    "asset" : {
        "generator" : "Khronos glTF Blender I/O v1.7.33",
        "version" : "2.0"
    },
    "scene" : 0,
    "scenes" : [
        {
            "name" : "Scene",
            "nodes" : [
                0,
                1,
                2,
                3,
                4,
                5,
                6,
                7,
                8,
                9,
                10
            ]
        }
    ],
    "nodes" : [
        {
            "mesh" : 0,
            "name" : "panel",
            "rotation" : [
                0.7071068286895752,
                0,
                0,
                0.7071068286895752
            ]
        },
        {
            "mesh" : 1,
            "name" : "cambios"
        },
        {
            "mesh" : 2,
            "name" : "silla"
        },
        {
            "mesh" : 3,
            "name" : "chasis"
        },
        {
            "mesh" : 4,
            "name" : "divisor"
        },
        {
            "mesh" : 5,
            "name" : "puerta"
        },
        {
            "mesh" : 6,
            "name" : "manubrio",
            "rotation" : [
                0.7071068286895752,
                0,
                0,
                0.7071068286895752
            ],
            "translation" : [
                -0.5506609082221985,
                1.205580472946167,
                -0.78374183177948
            ]
        },
        {
            "mesh" : 7,
            "name" : "left_front_wheel",
            "rotation" : [
                0,
                -1,
                0,
                -1.6292068494294654e-07
            ],
            "translation" : [
                0.7441285252571106,
                0.4562031030654907,
                -1.612997055053711
            ]
        },
        {
            "mesh" : 8,
            "name" : "left_rear_wheel",
            "rotation" : [
                0,
                -1,
                0,
                -1.6292068494294654e-07
            ],
            "translation" : [
                0.7441285252571106,
                0.4562031030654907,
                1.6129969358444214
            ]
        },
        {
            "mesh" : 9,
            "name" : "right_front_wheel",
            "rotation" : [
                0,
                -1,
                0,
                -1.6292068494294654e-07
            ],
            "translation" : [
                -0.7441285252571106,
                0.4562031030654907,
                -1.61299729347229
            ]
        },
        {
            "mesh" : 10,
            "name" : "right_rear_wheel",
            "rotation" : [
                0,
                -1,
                0,
                -1.6292068494294654e-07
            ],
            "translation" : [
                -0.7441285252571106,
                0.4562031030654907,
                1.6129966974258423
            ]
        }
    ],
    "meshes" : [
        {
            "name" : "Plane.002",
            "primitives" : [
                {
                    "attributes" : {
                        "POSITION" : 0,
                        "NORMAL" : 1,
                        "TEXCOORD_0" : 2
                    },
                    "indices" : 3
                }
            ]
        },
        {
            "name" : "Cube",
            "primitives" : [
                {
                    "attributes" : {
                        "POSITION" : 4,
                        "NORMAL" : 5,
                        "TEXCOORD_0" : 6
                    },
                    "indices" : 7
                }
            ]
        },
        {
            "name" : "Cube.002",
            "primitives" : [
                {
                    "attributes" : {
                        "POSITION" : 8,
                        "NORMAL" : 9,
                        "TEXCOORD_0" : 10
                    },
                    "indices" : 11
                }
            ]
        },
        {
            "name" : "Cube.003",
            "primitives" : [
                {
                    "attributes" : {
                        "POSITION" : 12,
                        "NORMAL" : 13,
                        "TEXCOORD_0" : 14
                    },
                    "indices" : 15
                }
            ]
        },
        {
            "name" : "Cube.004",
            "primitives" : [
                {
                    "attributes" : {
                        "POSITION" : 16,
                        "NORMAL" : 17,
                        "TEXCOORD_0" : 18
                    },
                    "indices" : 19
                }
            ]
        },
        {
            "name" : "Cube.005",
            "primitives" : [
                {
                    "attributes" : {
                        "POSITION" : 20,
                        "NORMAL" : 21,
                        "TEXCOORD_0" : 22
                    },
                    "indices" : 23
                }
            ]
        },
        {
            "name" : "Plane.001",
            "primitives" : [
                {
                    "attributes" : {
                        "POSITION" : 24,
                        "NORMAL" : 25,
                        "TEXCOORD_0" : 26
                    },
                    "indices" : 27
                }
            ]
        },
        {
            "name" : "Cylinder.001",
            "primitives" : [
                {
                    "attributes" : {
                        "POSITION" : 28,
                        "NORMAL" : 29,
                        "TEXCOORD_0" : 30
                    },
                    "indices" : 31
                }
            ]
        },
        {
            "name" : "Cylinder.003",
            "primitives" : [
                {
                    "attributes" : {
                        "POSITION" : 32,
                        "NORMAL" : 33,
                        "TEXCOORD_0" : 34
                    },
                    "indices" : 35
                }
            ]
        },
        {
            "name" : "Cylinder.002",
            "primitives" : [
                {
                    "attributes" : {
                        "POSITION" : 36,
                        "NORMAL" : 37,
                        "TEXCOORD_0" : 38
                    },
                    "indices" : 39
                }
            ]
        },
        {
            "name" : "Cylinder.004",
            "primitives" : [
                {
                    "attributes" : {
                        "POSITION" : 40,
                        "NORMAL" : 41,
                        "TEXCOORD_0" : 42
                    },
                    "indices" : 43
                }
            ]
        }
    ],
    "accessors" : [
        {
            "bufferView" : 0,
            "componentType" : 5126,
            "count" : 80,
            "max" : [
                0.8567187786102295,
                -0.7635654807090759,
                -0.9079396724700928
            ],
            "min" : [
                -0.8567187786102295,
                -0.9759082198143005,
                -1.2983572483062744
            ],
            "type" : "VEC3"
        },
        {
            "bufferView" : 1,
            "componentType" : 5126,
            "count" : 80,
            "type" : "VEC3"
        },
        {
            "bufferView" : 2,
            "componentType" : 5126,
            "count" : 80,
            "type" : "VEC2"
        },
        {
            "bufferView" : 3,
            "componentType" : 5123,
            "count" : 120,
            "type" : "SCALAR"
        },
        {
            "bufferView" : 4,
            "componentType" : 5126,
            "count" : 24,
            "max" : [
                0.13014474511146545,
                0.9900709390640259,
                0.2201203852891922
            ],
            "min" : [
                -0.130144864320755,
                0.9239866733551025,
                -0.9831344485282898
            ],
            "type" : "VEC3"
        },
        {
            "bufferView" : 5,
            "componentType" : 5126,
            "count" : 24,
            "type" : "VEC3"
        },
        {
            "bufferView" : 6,
            "componentType" : 5126,
            "count" : 24,
            "type" : "VEC2"
        },
        {
            "bufferView" : 7,
            "componentType" : 5123,
            "count" : 36,
            "type" : "SCALAR"
        },
        {
            "bufferView" : 8,
            "componentType" : 5126,
            "count" : 40,
            "max" : [
                0.8326833844184875,
                0.9988163709640503,
                0.21616816520690918
            ],
            "min" : [
                -0.8326833844184875,
                0.8663064241409302,
                -0.6052165031433105
            ],
            "type" : "VEC3"
        },
        {
            "bufferView" : 9,
            "componentType" : 5126,
            "count" : 40,
            "type" : "VEC3"
        },
        {
            "bufferView" : 10,
            "componentType" : 5126,
            "count" : 40,
            "type" : "VEC2"
        },
        {
            "bufferView" : 11,
            "componentType" : 5123,
            "count" : 60,
            "type" : "SCALAR"
        },
        {
            "bufferView" : 12,
            "componentType" : 5126,
            "count" : 294,
            "max" : [
                0.8648598790168762,
                1.9198944568634033,
                2.244255542755127
            ],
            "min" : [
                -0.8648600578308105,
                0.5014464855194092,
                -2.2535126209259033
            ],
            "type" : "VEC3"
        },
        {
            "bufferView" : 13,
            "componentType" : 5126,
            "count" : 294,
            "type" : "VEC3"
        },
        {
            "bufferView" : 14,
            "componentType" : 5126,
            "count" : 294,
            "type" : "VEC2"
        },
        {
            "bufferView" : 15,
            "componentType" : 5123,
            "count" : 564,
            "type" : "SCALAR"
        },
        {
            "bufferView" : 16,
            "componentType" : 5126,
            "count" : 48,
            "max" : [
                0.8598210215568542,
                1.7831250429153442,
                -0.09554605185985565
            ],
            "min" : [
                -0.8598210215568542,
                1.2967581748962402,
                -0.9768970012664795
            ],
            "type" : "VEC3"
        },
        {
            "bufferView" : 17,
            "componentType" : 5126,
            "count" : 48,
            "type" : "VEC3"
        },
        {
            "bufferView" : 18,
            "componentType" : 5126,
            "count" : 48,
            "type" : "VEC2"
        },
        {
            "bufferView" : 19,
            "componentType" : 5123,
            "count" : 72,
            "type" : "SCALAR"
        },
        {
            "bufferView" : 20,
            "componentType" : 5126,
            "count" : 48,
            "max" : [
                0.9283835887908936,
                1.298050045967102,
                0.44717031717300415
            ],
            "min" : [
                -0.9283835887908936,
                0.6244238615036011,
                -0.9772944450378418
            ],
            "type" : "VEC3"
        },
        {
            "bufferView" : 21,
            "componentType" : 5126,
            "count" : 48,
            "type" : "VEC3"
        },
        {
            "bufferView" : 22,
            "componentType" : 5126,
            "count" : 48,
            "type" : "VEC2"
        },
        {
            "bufferView" : 23,
            "componentType" : 5123,
            "count" : 72,
            "type" : "SCALAR"
        },
        {
            "bufferView" : 24,
            "componentType" : 5126,
            "count" : 872,
            "max" : [
                0.271451860666275,
                0.09192907810211182,
                0.243211567401886
            ],
            "min" : [
                -0.2714518904685974,
                1.1920928955078125e-07,
                -0.2996920347213745
            ],
            "type" : "VEC3"
        },
        {
            "bufferView" : 25,
            "componentType" : 5126,
            "count" : 872,
            "type" : "VEC3"
        },
        {
            "bufferView" : 26,
            "componentType" : 5126,
            "count" : 872,
            "type" : "VEC2"
        },
        {
            "bufferView" : 27,
            "componentType" : 5123,
            "count" : 1344,
            "type" : "SCALAR"
        },
        {
            "bufferView" : 28,
            "componentType" : 5126,
            "count" : 1224,
            "max" : [
                0.1680361032485962,
                0.4562021493911743,
                0.4562041759490967
            ],
            "min" : [
                -0.15176570415496826,
                -0.4562031626701355,
                -0.4562011957168579
            ],
            "type" : "VEC3"
        },
        {
            "bufferView" : 29,
            "componentType" : 5126,
            "count" : 1224,
            "type" : "VEC3"
        },
        {
            "bufferView" : 30,
            "componentType" : 5126,
            "count" : 1224,
            "type" : "VEC2"
        },
        {
            "bufferView" : 31,
            "componentType" : 5123,
            "count" : 1860,
            "type" : "SCALAR"
        },
        {
            "bufferView" : 32,
            "componentType" : 5126,
            "count" : 1224,
            "max" : [
                0.16803622245788574,
                0.4562021493911743,
                0.45620155334472656
            ],
            "min" : [
                -0.1517655849456787,
                -0.4562031626701355,
                -0.45620405673980713
            ],
            "type" : "VEC3"
        },
        {
            "bufferView" : 33,
            "componentType" : 5126,
            "count" : 1224,
            "type" : "VEC3"
        },
        {
            "bufferView" : 34,
            "componentType" : 5126,
            "count" : 1224,
            "type" : "VEC2"
        },
        {
            "bufferView" : 35,
            "componentType" : 5123,
            "count" : 1860,
            "type" : "SCALAR"
        },
        {
            "bufferView" : 36,
            "componentType" : 5126,
            "count" : 1224,
            "max" : [
                0.15176570415496826,
                0.4562021493911743,
                0.4562041759490967
            ],
            "min" : [
                -0.1680361032485962,
                -0.4562031626701355,
                -0.4562011957168579
            ],
            "type" : "VEC3"
        },
        {
            "bufferView" : 37,
            "componentType" : 5126,
            "count" : 1224,
            "type" : "VEC3"
        },
        {
            "bufferView" : 38,
            "componentType" : 5126,
            "count" : 1224,
            "type" : "VEC2"
        },
        {
            "bufferView" : 39,
            "componentType" : 5123,
            "count" : 1860,
            "type" : "SCALAR"
        },
        {
            "bufferView" : 40,
            "componentType" : 5126,
            "count" : 1224,
            "max" : [
                0.15176570415496826,
                0.4562021493911743,
                0.45620155334472656
            ],
            "min" : [
                -0.1680361032485962,
                -0.4562031626701355,
                -0.45620405673980713
            ],
            "type" : "VEC3"
        },
        {
            "bufferView" : 41,
            "componentType" : 5126,
            "count" : 1224,
            "type" : "VEC3"
        },
        {
            "bufferView" : 42,
            "componentType" : 5126,
            "count" : 1224,
            "type" : "VEC2"
        },
        {
            "bufferView" : 43,
            "componentType" : 5123,
            "count" : 1860,
            "type" : "SCALAR"
        }
    ],
    "bufferViews" : [
        {
            "buffer" : 0,
            "byteLength" : 960,
            "byteOffset" : 0
        },
        {
            "buffer" : 0,
            "byteLength" : 960,
            "byteOffset" : 960
        },
        {
            "buffer" : 0,
            "byteLength" : 640,
            "byteOffset" : 1920
        },
        {
            "buffer" : 0,
            "byteLength" : 240,
            "byteOffset" : 2560
        },
        {
            "buffer" : 0,
            "byteLength" : 288,
            "byteOffset" : 2800
        },
        {
            "buffer" : 0,
            "byteLength" : 288,
            "byteOffset" : 3088
        },
        {
            "buffer" : 0,
            "byteLength" : 192,
            "byteOffset" : 3376
        },
        {
            "buffer" : 0,
            "byteLength" : 72,
            "byteOffset" : 3568
        },
        {
            "buffer" : 0,
            "byteLength" : 480,
            "byteOffset" : 3640
        },
        {
            "buffer" : 0,
            "byteLength" : 480,
            "byteOffset" : 4120
        },
        {
            "buffer" : 0,
            "byteLength" : 320,
            "byteOffset" : 4600
        },
        {
            "buffer" : 0,
            "byteLength" : 120,
            "byteOffset" : 4920
        },
        {
            "buffer" : 0,
            "byteLength" : 3528,
            "byteOffset" : 5040
        },
        {
            "buffer" : 0,
            "byteLength" : 3528,
            "byteOffset" : 8568
        },
        {
            "buffer" : 0,
            "byteLength" : 2352,
            "byteOffset" : 12096
        },
        {
            "buffer" : 0,
            "byteLength" : 1128,
            "byteOffset" : 14448
        },
        {
            "buffer" : 0,
            "byteLength" : 576,
            "byteOffset" : 15576
        },
        {
            "buffer" : 0,
            "byteLength" : 576,
            "byteOffset" : 16152
        },
        {
            "buffer" : 0,
            "byteLength" : 384,
            "byteOffset" : 16728
        },
        {
            "buffer" : 0,
            "byteLength" : 144,
            "byteOffset" : 17112
        },
        {
            "buffer" : 0,
            "byteLength" : 576,
            "byteOffset" : 17256
        },
        {
            "buffer" : 0,
            "byteLength" : 576,
            "byteOffset" : 17832
        },
        {
            "buffer" : 0,
            "byteLength" : 384,
            "byteOffset" : 18408
        },
        {
            "buffer" : 0,
            "byteLength" : 144,
            "byteOffset" : 18792
        },
        {
            "buffer" : 0,
            "byteLength" : 10464,
            "byteOffset" : 18936
        },
        {
            "buffer" : 0,
            "byteLength" : 10464,
            "byteOffset" : 29400
        },
        {
            "buffer" : 0,
            "byteLength" : 6976,
            "byteOffset" : 39864
        },
        {
            "buffer" : 0,
            "byteLength" : 2688,
            "byteOffset" : 46840
        },
        {
            "buffer" : 0,
            "byteLength" : 14688,
            "byteOffset" : 49528
        },
        {
            "buffer" : 0,
            "byteLength" : 14688,
            "byteOffset" : 64216
        },
        {
            "buffer" : 0,
            "byteLength" : 9792,
            "byteOffset" : 78904
        },
        {
            "buffer" : 0,
            "byteLength" : 3720,
            "byteOffset" : 88696
        },
        {
            "buffer" : 0,
            "byteLength" : 14688,
            "byteOffset" : 92416
        },
        {
            "buffer" : 0,
            "byteLength" : 14688,
            "byteOffset" : 107104
        },
        {
            "buffer" : 0,
            "byteLength" : 9792,
            "byteOffset" : 121792
        },
        {
            "buffer" : 0,
            "byteLength" : 3720,
            "byteOffset" : 131584
        },
        {
            "buffer" : 0,
            "byteLength" : 14688,
            "byteOffset" : 135304
        },
        {
            "buffer" : 0,
            "byteLength" : 14688,
            "byteOffset" : 149992
        },
        {
            "buffer" : 0,
            "byteLength" : 9792,
            "byteOffset" : 164680
        },
        {
            "buffer" : 0,
            "byteLength" : 3720,
            "byteOffset" : 174472
        },
        {
            "buffer" : 0,
            "byteLength" : 14688,
            "byteOffset" : 178192
        },
        {
            "buffer" : 0,
            "byteLength" : 14688,
            "byteOffset" : 192880
        },
        {
            "buffer" : 0,
            "byteLength" : 9792,
            "byteOffset" : 207568
        },
        {
            "buffer" : 0,
            "byteLength" : 3720,
            "byteOffset" : 217360
        }
    ],
    "buffers" : [
        {
            "byteLength" : 221080,
            "uri" : "data:application/octet-stream;base64,"
        }
    ]
}
